<svg xmlns="http://www.w3.org/2000/svg" viewBox="0 0 124.82 93.67"><defs><style>.cls-1{fill:#1f3bb1;}.cls-2{fill:#4ddffd;}.cls-3{fill:#73729a;opacity:0.3;}</style></defs><title>Asset 3</title><g id="Layer_2" data-name="Layer 2"><g id="Layer_1-2" data-name="Layer 1"><path class="cls-1" d="M47.76,65.65a11.23,11.23,0,1,0,18.18,13.2C69.59,73.83,77.36,44,77.36,44S51.4,60.63,47.76,65.65Z"></path><path class="cls-1" d="M66.07,0V17.6a44.77,44.77,0,0,1,15.58,4.16l8.8-15.24A62.14,62.14,0,0,0,66.07,0Z"></path><path class="cls-2" d="M107.22,58.75h17.6a62.27,62.27,0,0,0-6.52-24.38l-15.25,8.8A44.78,44.78,0,0,1,107.22,58.75Z"></path><path class="cls-1" d="M58.75,0A62.14,62.14,0,0,0,34.37,6.52l8.8,15.24A44.77,44.77,0,0,1,58.75,17.6Z"></path><path class="cls-1" d="M21.77,43.17,6.52,34.37A62.27,62.27,0,0,0,0,58.75H17.6A44.78,44.78,0,0,1,21.77,43.17Z"></path><path class="cls-3" d="M107.21,66.07a44.72,44.72,0,0,1-5.86,18.82l15.21,8.78a62.25,62.25,0,0,0,8.26-27.6Z"></path><path class="cls-2" d="M96.79,10.19,88,25.43a45.24,45.24,0,0,1,11.4,11.4L114.63,28A62.89,62.89,0,0,0,96.79,10.19Z"></path><path class="cls-1" d="M0,66.07a62.13,62.13,0,0,0,8.26,27.6l15.21-8.78a44.72,44.72,0,0,1-5.86-18.82Z"></path><path class="cls-1" d="M10.19,28l15.24,8.8a45.41,45.41,0,0,1,11.4-11.4L28,10.19A62.77,62.77,0,0,0,10.19,28Z"></path></g></g></svg>