<svg xmlns="http://www.w3.org/2000/svg" viewBox="0 0 144.38 34.43"><defs><style>.cls-1{fill:#112164;}.cls-2{fill:#1f3bb1;}.cls-3{fill:#4ddffd;}</style></defs><title>Asset 1</title><g id="Layer_2" data-name="Layer 2"><g id="Layer_1-2" data-name="Layer 1"><path class="cls-1" d="M42.33,34,46.79,8.8h4.64l8.64,18,3.17-18h4.61L63.39,34H58.78L50.14,16,46.93,34Z"/><path class="cls-1" d="M76.78,34.43a7.75,7.75,0,0,1-5.67-2A7.37,7.37,0,0,1,69,26.84a11.8,11.8,0,0,1,.79-4.29A10.79,10.79,0,0,1,72.06,19a11,11,0,0,1,3.51-2.42,11.3,11.3,0,0,1,4.48-.88,8.44,8.44,0,0,1,4.07.92,6.47,6.47,0,0,1,2.61,2.52,7.25,7.25,0,0,1,.92,3.65,10.17,10.17,0,0,1-.16,1.79,14.07,14.07,0,0,1-.38,1.6H73.54v.61a3.73,3.73,0,0,0,1.08,2.83,3.91,3.91,0,0,0,2.81,1A4.68,4.68,0,0,0,79.86,30a5.35,5.35,0,0,0,1.74-1.64h4.68A10.48,10.48,0,0,1,84,31.48a11,11,0,0,1-3.27,2.16A10,10,0,0,1,76.78,34.43Zm2.66-15a5.63,5.63,0,0,0-3.13.95,5.51,5.51,0,0,0-2.16,2.9H83a2.85,2.85,0,0,0,0-.4,3.2,3.2,0,0,0-1-2.52A3.79,3.79,0,0,0,79.44,19.46Z"/><path class="cls-1" d="M97.3,34a6.78,6.78,0,0,1-3.91-1,3.94,3.94,0,0,1-1.46-3.49,9.64,9.64,0,0,1,.18-1.76L93.48,20H90.6l.69-3.86h2.88l1.36-4.78h4.11l-.87,4.78h4.86L102.91,20H98.13l-1.41,7.77a3.51,3.51,0,0,0-.07.72,1.42,1.42,0,0,0,.49,1.23,2.72,2.72,0,0,0,1.6.36h2.45L100.47,34Z"/><path class="cls-1" d="M104.57,34,109,8.8h15.74l-.69,3.64H113l-1.26,7.16h8.9L120,23.13h-8.89L109.18,34Z"/><path class="cls-1" d="M122.32,34l8.1-9-4.93-8.9h4.89l3.42,6.34,5.62-6.34h5l-8.1,9,4.9,8.89h-4.9l-3.38-6.34L127.25,34Z"/><path class="cls-2" d="M28.15,29.82A17,17,0,1,1,17,0,16.93,16.93,0,0,1,27.76,3.84L13.66,17Z"/><circle class="cls-3" cx="20.07" cy="17" r="1.08"/><path class="cls-3" d="M25.49,17A5.44,5.44,0,0,0,24,13.24a1.09,1.09,0,0,0-1.56,1.51,3.32,3.32,0,0,1,0,4.5A1.09,1.09,0,0,0,24,20.76,5.44,5.44,0,0,0,25.49,17Z"/><path class="cls-3" d="M30.9,17a9.73,9.73,0,0,0-3-7,1.1,1.1,0,0,0-1.5,1.6h0a7.58,7.58,0,0,1,.2,10.71l-.2.2a1.11,1.11,0,0,0-.33.77,1.09,1.09,0,0,0,1.09,1.08,1.07,1.07,0,0,0,.74-.3A9.72,9.72,0,0,0,30.9,17Z"/><path class="cls-3" d="M32.06,27.52a15.14,15.14,0,0,0,0-21A1.08,1.08,0,0,0,30.5,8,13,13,0,0,1,30.5,26a1.09,1.09,0,0,0-.3.75,1.11,1.11,0,0,0,.33.78A1.09,1.09,0,0,0,32.06,27.52Z"/></g></g></svg>